<svg width="20" height="20" viewBox="0 0 20 20" fill="none" xmlns="http://www.w3.org/2000/svg">
<g clip-path="url(#clip0_30498_3441)">
<path d="M14.8335 16.5142L13.0235 17.4625C12.9698 17.4905 12.9094 17.5029 12.849 17.4985C12.7886 17.4941 12.7306 17.473 12.6815 17.4376C12.6324 17.4022 12.5941 17.3538 12.571 17.2978C12.5478 17.2419 12.5406 17.1806 12.5502 17.1208L12.896 15.1117L11.4319 13.6892C11.3882 13.6469 11.3572 13.5932 11.3426 13.5342C11.3279 13.4752 11.3301 13.4133 11.349 13.3555C11.3679 13.2978 11.4026 13.2464 11.4492 13.2074C11.4958 13.1684 11.5525 13.1433 11.6127 13.135L13.636 12.8417L14.541 11.0142C14.5681 10.9597 14.6098 10.9139 14.6615 10.8819C14.7132 10.8499 14.7727 10.8329 14.8335 10.8329C14.8943 10.8329 14.9539 10.8499 15.0056 10.8819C15.0572 10.9139 15.099 10.9597 15.126 11.0142L16.031 12.8417L18.0544 13.135C18.1144 13.1436 18.1708 13.1689 18.2172 13.2079C18.2637 13.247 18.2982 13.2982 18.3171 13.3559C18.3359 13.4135 18.3382 13.4753 18.3237 13.5342C18.3092 13.5931 18.2786 13.6468 18.2352 13.6892L16.771 15.1117L17.116 17.12C17.1264 17.1799 17.1197 17.2415 17.0968 17.2978C17.074 17.3541 17.0357 17.4028 16.9865 17.4385C16.9373 17.4742 16.8791 17.4953 16.8185 17.4996C16.7578 17.5038 16.6972 17.491 16.6435 17.4625L14.8335 16.5142Z" stroke="#314158" stroke-width="2" stroke-linecap="round" stroke-linejoin="round"/>
<path d="M5.16654 16.5142L3.35654 17.4625C3.30283 17.4905 3.2424 17.5029 3.18201 17.4985C3.12161 17.4941 3.06363 17.473 3.01453 17.4376C2.96543 17.4022 2.92715 17.3538 2.90396 17.2978C2.88077 17.2419 2.87359 17.1806 2.88321 17.1208L3.22904 15.1117L1.76487 13.6892C1.72117 13.6469 1.69023 13.5932 1.67557 13.5342C1.66092 13.4752 1.66315 13.4133 1.68201 13.3555C1.70086 13.2978 1.73559 13.2464 1.78222 13.2074C1.82884 13.1684 1.8855 13.1433 1.94571 13.135L3.96904 12.8417L4.87404 11.0142C4.9011 10.9597 4.94282 10.9139 4.99449 10.8819C5.04617 10.8499 5.10575 10.8329 5.16654 10.8329C5.22733 10.8329 5.28691 10.8499 5.33858 10.8819C5.39026 10.9139 5.43197 10.9597 5.45904 11.0142L6.36404 12.8417L8.38737 13.135C8.44741 13.1436 8.50383 13.1689 8.55025 13.2079C8.59667 13.247 8.63125 13.2982 8.65006 13.3559C8.66888 13.4135 8.67118 13.4753 8.65672 13.5342C8.64225 13.5931 8.61159 13.6468 8.56821 13.6892L7.10404 15.1117L7.44904 17.12C7.45939 17.1799 7.45275 17.2415 7.42985 17.2978C7.40696 17.3541 7.36874 17.4028 7.31953 17.4385C7.27032 17.4742 7.2121 17.4953 7.15147 17.4996C7.09084 17.5038 7.03023 17.491 6.97654 17.4625L5.16654 16.5142Z" stroke="#314158" stroke-width="2" stroke-linecap="round" stroke-linejoin="round"/>
<path d="M10 8.18082L8.19004 9.12916C8.13632 9.15711 8.0759 9.16959 8.0155 9.16519C7.95511 9.1608 7.89713 9.1397 7.84803 9.10426C7.79893 9.06882 7.76065 9.02043 7.73746 8.96449C7.71427 8.90855 7.70708 8.84727 7.7167 8.78749L8.06254 6.77832L6.59837 5.35582C6.55467 5.31357 6.52372 5.25989 6.50907 5.2009C6.49442 5.14191 6.49665 5.07998 6.5155 5.02219C6.53436 4.96441 6.56908 4.91309 6.61571 4.87409C6.66234 4.8351 6.71899 4.81 6.7792 4.80166L8.80254 4.50832L9.70754 2.68082C9.7346 2.62639 9.77632 2.58059 9.82799 2.54858C9.87966 2.51656 9.93925 2.4996 10 2.4996C10.0608 2.4996 10.1204 2.51656 10.1721 2.54858C10.2238 2.58059 10.2655 2.62639 10.2925 2.68082L11.1975 4.50832L13.2209 4.80166C13.2809 4.81029 13.3373 4.83556 13.3837 4.87459C13.4302 4.91362 13.4647 4.96486 13.4836 5.02252C13.5024 5.08018 13.5047 5.14196 13.4902 5.20086C13.4757 5.25976 13.4451 5.31344 13.4017 5.35582L11.9375 6.77832L12.2825 8.78666C12.2929 8.84654 12.2862 8.90814 12.2634 8.96444C12.2405 9.02074 12.2022 9.06949 12.153 9.10516C12.1038 9.14083 12.0456 9.16199 11.985 9.16623C11.9243 9.17047 11.8637 9.15763 11.81 9.12916L10 8.18082Z" stroke="#314158" stroke-width="2" stroke-linecap="round" stroke-linejoin="round"/>
</g>
<defs>
<clipPath id="clip0_30498_3441">
<rect width="20" height="20" fill="white"/>
</clipPath>
</defs>
</svg>
