<svg width="25" height="24" viewBox="0 0 25 24" fill="none" xmlns="http://www.w3.org/2000/svg">
<g clip-path="url(#clip0_30484_3434)">
<path d="M4.69971 19C4.69971 19.5304 4.91042 20.0391 5.28549 20.4142C5.66057 20.7893 6.16927 21 6.69971 21C7.23014 21 7.73885 20.7893 8.11392 20.4142C8.48899 20.0391 8.69971 19.5304 8.69971 19C8.69971 18.4696 8.48899 17.9609 8.11392 17.5858C7.73885 17.2107 7.23014 17 6.69971 17C6.16927 17 5.66057 17.2107 5.28549 17.5858C4.91042 17.9609 4.69971 18.4696 4.69971 19Z" stroke="#CAD5E2" stroke-width="2" stroke-linecap="round" stroke-linejoin="round"/>
<path d="M15.6997 19C15.6997 19.5304 15.9104 20.0391 16.2855 20.4142C16.6606 20.7893 17.1693 21 17.6997 21C18.2301 21 18.7388 20.7893 19.1139 20.4142C19.489 20.0391 19.6997 19.5304 19.6997 19C19.6997 18.4696 19.489 17.9609 19.1139 17.5858C18.7388 17.2107 18.2301 17 17.6997 17C17.1693 17 16.6606 17.2107 16.2855 17.5858C15.9104 17.9609 15.6997 18.4696 15.6997 19Z" stroke="#CAD5E2" stroke-width="2" stroke-linecap="round" stroke-linejoin="round"/>
<path d="M17.6997 17H6.69971V3H4.69971" stroke="#CAD5E2" stroke-width="2" stroke-linecap="round" stroke-linejoin="round"/>
<path d="M6.69971 5L20.6997 6L19.6997 13H6.69971" stroke="#CAD5E2" stroke-width="2" stroke-linecap="round" stroke-linejoin="round"/>
</g>
<defs>
<clipPath id="clip0_30484_3434">
<rect width="24" height="24" fill="white" transform="translate(0.699707)"/>
</clipPath>
</defs>
</svg>
